<?xml version="1.0" standalone="no"?>
<!DOCTYPE svg PUBLIC "-//W3C//DTD SVG 20010904//EN"
 "http://www.w3.org/TR/2001/REC-SVG-20010904/DTD/svg10.dtd">
<svg version="1.0" xmlns="http://www.w3.org/2000/svg"
 width="1080.000000pt" height="1080.000000pt" viewBox="0 0 1080.000000 1080.000000"
 preserveAspectRatio="xMidYMid meet">

<g transform="translate(0.000000,1080.000000) scale(0.100000,-0.100000)"
fill="white" stroke="none">
<path d="M5045 9560 c-279 -19 -326 -24 -331 -32 -3 -4 -2 -33 2 -64 l7 -56
96 3 96 4 6 -85 c3 -47 9 -134 13 -195 4 -60 9 -129 12 -153 l5 -43 67 3 67 3
-2 90 c-1 50 -6 155 -12 235 -5 80 -6 148 -2 153 4 4 32 10 62 13 127 12 119
7 119 74 l0 60 -52 -2 c-29 -1 -98 -4 -153 -8z"/>
<path d="M5686 9549 c-2 -8 -11 -84 -21 -169 -9 -85 -20 -180 -25 -210 -15
-97 -22 -208 -13 -213 5 -3 36 -9 70 -12 l60 -7 13 115 c7 64 17 121 21 128 6
10 29 10 111 -1 56 -7 108 -17 114 -22 8 -6 9 -21 4 -46 -13 -61 -22 -200 -13
-205 4 -3 35 -7 68 -8 l60 -4 7 50 c4 28 14 111 23 185 9 74 20 169 25 210 5
41 12 93 15 116 l7 40 -66 12 c-37 7 -71 10 -75 8 -4 -3 -11 -46 -15 -96 -10
-128 -6 -124 -90 -116 -39 3 -90 9 -113 12 -43 6 -43 7 -43 47 0 22 5 69 11
105 8 42 8 67 1 74 -5 5 -37 12 -71 15 -47 4 -62 3 -65 -8z"/>
<path d="M4351 9475 c-86 -27 -140 -107 -127 -189 14 -85 59 -124 201 -171 93
-31 115 -47 115 -86 0 -54 -84 -82 -180 -59 -28 7 -54 10 -57 6 -6 -6 9 -67
29 -118 10 -26 14 -28 72 -28 158 2 263 70 274 180 12 128 -42 188 -213 235
-83 23 -105 39 -105 75 0 43 28 54 123 47 l80 -5 -6 50 c-4 28 -12 56 -18 64
-15 18 -128 18 -188 -1z"/>
<path d="M6521 9369 c-161 -72 -242 -262 -181 -423 29 -76 94 -146 163 -177
78 -35 183 -33 259 4 64 32 125 94 159 165 34 69 34 209 0 274 -37 74 -77 114
-143 147 -52 27 -72 31 -137 31 -54 0 -89 -6 -120 -21z m215 -144 c48 -36 68
-87 61 -156 -9 -106 -73 -178 -165 -186 -55 -6 -101 20 -140 77 -21 30 -23 44
-19 101 5 83 41 141 107 176 54 29 107 25 156 -12z"/>
<path d="M3940 9344 c-36 -14 -74 -30 -85 -34 -11 -5 -54 -21 -95 -36 -41 -14
-78 -30 -82 -33 -7 -6 16 -79 53 -168 5 -13 13 -33 18 -45 5 -13 26 -68 46
-123 72 -195 88 -235 96 -235 8 0 107 37 164 60 11 5 56 22 100 38 69 26 80
32 77 51 -6 40 -32 91 -46 91 -8 0 -48 -13 -89 -29 -123 -47 -124 -47 -142 -5
-28 68 -24 76 66 109 45 16 84 36 86 43 3 7 -2 33 -12 58 -16 42 -19 45 -46
39 -16 -4 -57 -18 -91 -31 -69 -27 -77 -24 -97 31 -17 48 -12 52 107 95 l93
34 -7 31 c-8 37 -32 85 -42 85 -4 -1 -36 -12 -72 -26z"/>
<path d="M7207 9143 c-8 -16 -33 -62 -56 -103 -96 -174 -134 -260 -139 -314
-6 -74 19 -136 75 -185 58 -51 103 -72 173 -78 73 -7 151 26 199 83 34 41 211
357 211 377 0 19 -89 62 -106 51 -9 -5 -40 -56 -71 -114 -104 -197 -130 -236
-167 -254 -44 -21 -58 -20 -106 4 -96 49 -80 126 86 413 19 32 34 66 34 75 0
12 -20 28 -55 45 -31 15 -57 27 -59 27 -3 0 -11 -12 -19 -27z"/>
<path d="M3235 9025 c-142 -73 -142 -73 -116 -119 12 -20 29 -51 39 -68 10
-18 45 -82 77 -143 74 -140 139 -258 152 -274 6 -8 123 53 123 64 0 6 -4 15
-9 21 -34 37 -104 194 -86 194 2 0 63 -29 135 -66 l131 -65 65 36 c35 20 62
41 58 46 -3 6 -62 37 -130 71 -68 33 -126 64 -129 68 -3 4 3 23 12 41 36 71
12 166 -55 217 -26 20 -49 27 -96 30 -59 4 -67 1 -171 -53z m192 -87 c37 -35
32 -88 -13 -128 -20 -17 -43 -30 -51 -28 -16 3 -83 112 -83 135 0 16 56 41 94
42 18 1 39 -8 53 -21z"/>
<path d="M7820 8759 c-14 -5 -36 -20 -48 -32 -64 -59 -69 -136 -17 -264 51
-127 45 -173 -25 -173 -28 0 -103 71 -125 120 -10 22 -22 40 -27 40 -11 0 -78
-105 -78 -122 0 -24 82 -109 134 -138 99 -58 221 -34 275 53 42 69 38 126 -20
254 -42 92 -44 108 -20 132 12 12 24 21 29 21 24 0 74 -46 102 -95 36 -63 40
-63 90 10 l28 41 -36 47 c-73 91 -187 138 -262 106z"/>
<path d="M2755 8726 c-75 -29 -142 -85 -175 -146 -19 -36 -40 -113 -40 -150 0
-85 64 -212 134 -265 91 -69 235 -87 330 -39 114 57 169 142 174 271 4 74 1
87 -27 146 -59 123 -176 198 -304 196 -34 -1 -75 -7 -92 -13z m184 -159 c56
-37 95 -108 95 -172 0 -68 -27 -113 -87 -143 -44 -23 -50 -24 -94 -12 -64 18
-104 50 -136 109 -51 92 -25 200 56 237 46 21 119 12 166 -19z"/>
<path d="M8097 8241 c-114 -115 -207 -215 -207 -223 0 -18 243 -258 261 -257
8 0 29 19 48 40 l34 40 -76 77 c-42 43 -77 83 -77 90 0 12 13 27 59 66 l22 20
69 -69 70 -69 40 39 c22 21 40 43 40 48 0 5 -29 39 -65 77 l-66 67 29 31 c16
17 34 32 40 34 6 2 46 -32 90 -75 l79 -77 41 41 c23 22 42 44 42 47 0 9 -253
262 -261 262 -3 0 -98 -94 -212 -209z"/>
<path d="M2290 8333 c0 -5 -52 -64 -115 -132 -64 -69 -114 -131 -113 -138 3
-15 427 -403 440 -403 5 0 29 21 53 48 l45 47 -87 82 c-69 64 -86 85 -78 97 6
8 36 44 68 79 l58 66 -38 35 c-21 20 -43 36 -49 36 -7 0 -40 -31 -74 -70 -34
-38 -65 -70 -69 -70 -13 1 -81 69 -81 82 1 7 32 46 70 86 39 40 70 77 70 81 0
12 -75 81 -88 81 -7 0 -12 -3 -12 -7z"/>
<path d="M5370 7566 c0 -667 -1 -686 -19 -696 -11 -5 -37 -10 -58 -10 -39 0
-39 0 -52 53 -7 28 -16 63 -21 77 -5 14 -25 90 -45 170 -20 80 -40 155 -45
168 -10 23 -35 28 -59 13 -15 -10 -8 -50 49 -256 53 -195 62 -237 54 -245 -5
-4 -30 -14 -55 -23 l-46 -15 -53 87 c-29 47 -63 102 -76 121 -12 19 -77 125
-144 235 -67 110 -147 241 -178 290 -30 50 -61 100 -69 112 -11 19 -17 21 -38
11 -36 -16 -37 -31 -4 -83 17 -26 73 -118 126 -204 52 -86 123 -201 157 -256
35 -55 95 -152 134 -216 40 -63 72 -120 72 -126 0 -5 -16 -18 -35 -29 l-35
-18 -47 45 c-27 24 -93 88 -148 140 -207 198 -203 194 -225 174 -11 -10 -20
-23 -20 -30 0 -7 28 -38 63 -70 153 -143 307 -300 304 -309 -2 -5 -11 -14 -20
-20 -17 -11 -93 24 -382 177 -66 35 -205 107 -310 161 -192 100 -281 146 -525
274 -306 160 -293 154 -304 126 -11 -29 -6 -49 17 -60 30 -14 388 -199 462
-239 33 -18 141 -74 240 -125 99 -51 216 -112 260 -135 124 -66 417 -218 442
-230 13 -5 23 -14 23 -19 0 -18 -53 -86 -67 -86 -13 0 -165 58 -248 95 -66 29
-292 115 -303 115 -15 0 -27 -49 -15 -61 5 -5 94 -43 198 -85 105 -41 199 -79
210 -84 11 -5 41 -18 68 -29 50 -21 58 -40 32 -75 -15 -20 -16 -20 -133 3 -64
12 -128 24 -140 27 -13 3 -87 16 -165 30 -78 14 -164 29 -192 34 -27 6 -75 14
-105 19 -30 6 -118 22 -195 36 -77 14 -164 30 -192 36 -29 5 -79 14 -110 19
-161 30 -157 29 -170 12 -27 -34 -10 -56 52 -65 22 -3 66 -11 98 -16 31 -6 81
-15 110 -21 28 -5 115 -21 192 -35 77 -14 165 -30 195 -36 30 -5 78 -13 105
-18 28 -6 91 -17 140 -26 111 -19 342 -62 413 -76 56 -11 62 -21 42 -75 -9
-23 -14 -26 -43 -20 -17 4 -70 11 -117 16 -47 5 -152 17 -235 26 -82 10 -179
18 -215 18 l-65 1 0 -30 c0 -29 2 -30 60 -37 111 -13 229 -27 330 -37 55 -6
137 -16 183 -22 l82 -11 0 -44 0 -44 -57 0 c-58 0 -660 20 -1183 40 -365 13
-674 23 -678 21 -1 -1 -15 5 -30 13 -15 7 -41 17 -58 20 -27 6 -32 4 -38 -16
-80 -282 -109 -493 -110 -808 -1 -217 9 -363 34 -490 5 -25 14 -74 21 -110 87
-473 322 -957 655 -1350 298 -352 681 -635 1109 -818 528 -226 1123 -295 1690
-197 424 74 807 229 1180 478 75 51 165 117 185 137 3 3 44 38 91 77 326 275
616 671 793 1086 138 323 211 636 237 1012 19 285 -15 626 -93 915 -11 41 -23
89 -28 105 -67 256 -251 633 -431 883 -90 125 -247 312 -263 312 -7 0 -21 -10
-32 -22 -19 -21 -71 -47 -509 -253 -184 -87 -239 -112 -385 -180 -80 -37 -185
-87 -235 -110 -118 -57 -265 -125 -341 -159 l-61 -27 -32 30 c-18 17 -31 37
-29 45 2 8 75 89 163 181 88 92 161 173 163 179 1 7 -7 21 -19 32 l-21 19
-179 -182 c-98 -101 -180 -183 -182 -183 -16 0 -97 54 -97 65 0 7 42 87 94
178 51 90 105 184 119 208 13 24 40 71 59 104 60 104 194 339 206 361 10 19 8
24 -14 39 -22 14 -28 15 -39 3 -7 -7 -93 -152 -191 -323 -199 -348 -207 -362
-242 -425 -65 -116 -68 -120 -104 -110 -17 6 -35 13 -40 18 -7 7 20 123 87
380 20 75 16 92 -24 92 -28 0 -29 -2 -54 -102 -40 -161 -87 -340 -93 -349 -4
-8 -29 -6 -91 7 l-23 4 -2 688 -3 687 -32 3 -33 3 0 -685z m2241 -378 c60 -71
162 -207 229 -308 59 -88 205 -363 242 -455 62 -157 111 -305 138 -416 12 -47
10 -60 -40 -319 -5 -25 -13 -72 -19 -105 -25 -141 -62 -344 -71 -390 -14 -68
-46 -241 -65 -350 -8 -49 -20 -110 -25 -135 -5 -25 -15 -78 -22 -117 -12 -73
-22 -89 -32 -55 -6 18 -50 222 -66 307 -6 28 -14 68 -19 90 -5 22 -21 98 -35
169 -15 72 -28 132 -31 134 -6 7 -22 -65 -40 -188 -15 -106 -42 -279 -65 -425
-50 -319 -51 -321 -75 -199 -9 49 -20 105 -25 124 -4 19 -24 116 -45 215 -20
99 -41 196 -45 215 -8 35 -19 89 -66 315 -13 66 -29 139 -34 163 -20 84 -29
129 -55 262 -15 74 -29 142 -32 150 -8 23 -23 -23 -33 -100 -5 -36 -20 -141
-35 -235 -14 -93 -30 -197 -35 -230 -5 -33 -13 -87 -19 -120 -12 -74 -23 -150
-50 -330 -12 -77 -25 -165 -30 -195 -5 -30 -14 -84 -20 -120 -5 -36 -15 -94
-20 -130 -53 -331 -54 -341 -41 -414 6 -39 16 -81 21 -94 5 -13 9 -34 9 -47 0
-13 4 -34 9 -47 5 -13 17 -66 26 -118 20 -113 33 -160 45 -160 18 0 38 -30 33
-50 -3 -11 -9 -20 -13 -20 -4 0 -10 -30 -13 -67 -12 -142 -60 -440 -73 -452
-49 -42 -173 -123 -240 -157 -46 -24 -94 -52 -106 -64 -12 -11 -29 -20 -38
-20 -10 0 -51 -16 -93 -35 -42 -19 -79 -35 -84 -35 -4 0 -8 19 -9 43 0 23 -4
120 -9 215 l-8 174 -38 25 c-61 40 -68 94 -8 59 17 -10 34 -14 39 -10 4 5 5
95 2 200 l-5 190 -61 39 c-33 21 -71 44 -83 52 -24 14 -30 37 -13 48 5 3 40
-12 78 -34 37 -23 71 -41 75 -41 9 0 9 97 0 273 l-6 136 -54 37 c-56 39 -61
45 -40 62 10 9 22 5 49 -13 20 -13 38 -21 42 -18 3 4 3 140 0 303 -6 232 -4
299 5 305 7 4 17 3 22 -2 6 -6 14 -142 19 -308 5 -164 12 -300 14 -303 3 -2
19 7 36 22 36 30 55 33 64 11 4 -11 -12 -29 -49 -58 l-55 -42 0 -197 c0 -115
4 -199 10 -203 5 -3 38 13 73 37 72 47 72 48 97 243 13 96 10 133 -29 310 -40
187 -69 324 -125 595 -59 289 -75 360 -84 376 -8 15 -14 -13 -43 -196 -5 -36
-14 -90 -19 -120 -5 -30 -13 -86 -19 -125 -20 -138 -42 -281 -51 -335 -5 -30
-14 -89 -20 -130 -6 -41 -15 -100 -20 -130 -5 -30 -14 -86 -20 -125 -24 -153
-27 -160 -81 -196 l-49 -34 1 -115 c0 -63 4 -135 7 -158 l7 -44 53 37 c53 36
82 40 82 11 0 -9 -28 -34 -62 -57 -35 -24 -67 -47 -71 -53 -7 -9 0 -296 7
-304 2 -1 33 16 71 38 66 41 100 46 93 13 -2 -9 -40 -39 -85 -67 l-83 -50 0
-158 c0 -87 4 -158 9 -158 5 0 51 25 102 55 95 56 113 63 124 45 11 -18 -11
-35 -121 -100 -112 -67 -117 -74 -112 -150 3 -40 1 -45 -19 -48 -22 -3 -23 0
-23 55 0 33 -6 66 -12 75 -12 14 -76 51 -185 108 -44 22 -55 46 -28 56 8 3 58
-17 111 -45 53 -29 99 -49 103 -46 10 10 0 299 -11 312 -6 7 -22 19 -37 26
-98 51 -131 74 -131 93 0 24 39 16 101 -21 33 -19 62 -35 65 -35 2 0 4 70 4
155 l0 154 -70 42 c-70 41 -80 55 -59 76 8 8 25 2 65 -23 29 -19 56 -34 59
-34 3 0 5 69 5 154 l0 155 -45 32 c-67 48 -56 96 12 52 l26 -17 -8 242 c-6
221 -5 242 10 248 13 5 15 14 10 43 -13 74 -98 411 -102 407 -3 -3 -11 -53
-19 -113 -7 -59 -18 -144 -25 -188 -6 -44 -14 -110 -18 -147 -12 -121 -29
-107 -60 52 -33 163 -37 165 -60 15 -6 -38 -17 -113 -25 -165 -31 -201 -56
-368 -67 -440 -6 -41 -14 -95 -19 -120 -5 -25 -15 -84 -22 -133 -7 -48 -16
-86 -22 -84 -9 3 -15 24 -56 202 -12 55 -28 120 -35 145 -11 44 -12 44 -22 20
-6 -14 -18 -63 -27 -110 -18 -99 -71 -362 -86 -435 -6 -27 -17 -79 -24 -114
-7 -36 -17 -66 -23 -68 -5 -2 -15 29 -22 69 -7 40 -16 93 -21 118 -5 25 -14
74 -20 110 -6 36 -15 85 -20 110 -5 25 -14 77 -21 115 -27 153 -35 189 -46
192 -6 2 -13 -9 -16 -24 -3 -15 -10 -44 -15 -63 -6 -19 -20 -71 -32 -115 -43
-163 -54 -179 -63 -97 -5 40 -21 151 -67 442 -5 30 -14 89 -20 130 -6 41 -15
100 -20 130 -5 30 -16 106 -26 169 -15 98 -20 111 -31 95 -7 -10 -13 -30 -13
-44 0 -15 -4 -40 -9 -56 -5 -16 -14 -54 -20 -84 -32 -154 -63 -297 -68 -310
-7 -18 -18 25 -33 125 -14 94 -27 177 -39 250 -5 33 -17 107 -25 165 -19 123
-27 163 -31 158 -2 -2 -16 -62 -30 -133 -15 -72 -31 -146 -35 -165 -4 -19 -24
-116 -45 -215 -49 -235 -46 -225 -54 -225 -9 0 -42 202 -101 605 -5 33 -14 87
-19 120 -21 129 -63 402 -68 443 -3 23 -10 45 -14 48 -5 3 -9 2 -9 -3 0 -4 -7
-40 -15 -78 -21 -97 -65 -311 -76 -365 -5 -25 -13 -63 -18 -85 -5 -22 -20 -96
-34 -165 -15 -69 -35 -168 -47 -220 -11 -52 -27 -126 -35 -165 -8 -38 -15 -98
-15 -132 0 -56 22 -217 36 -266 6 -18 114 -97 133 -97 7 0 11 24 11 58 0 31 3
120 6 197 l7 140 -57 43 c-31 23 -56 49 -56 56 0 25 29 25 59 1 16 -14 34 -25
40 -25 7 0 11 32 12 93 1 50 5 187 8 302 6 201 7 210 26 210 20 0 20 -5 16
-302 -2 -167 0 -303 4 -303 4 0 21 10 37 22 22 15 35 18 46 12 24 -16 18 -27
-34 -62 -44 -29 -50 -36 -56 -80 -10 -75 -9 -362 2 -362 5 0 37 18 72 39 64
41 78 43 78 12 0 -12 -24 -33 -69 -60 -108 -64 -101 -45 -101 -263 l0 -190 30
7 c26 6 30 4 30 -14 0 -11 -13 -29 -30 -41 -28 -20 -30 -25 -30 -90 0 -97 -20
-323 -29 -333 -5 -5 -37 6 -71 22 -35 17 -71 31 -81 31 -10 0 -31 11 -47 25
-17 14 -32 25 -35 25 -3 0 -33 16 -66 35 -32 19 -64 35 -70 35 -5 0 -41 22
-78 49 -123 89 -126 93 -134 152 -10 73 -25 168 -40 259 -7 41 -12 94 -11 118
1 29 -3 45 -13 49 -25 9 -18 52 10 65 15 6 28 23 31 37 3 14 9 44 14 66 5 22
11 51 13 65 3 14 18 84 33 155 32 145 37 268 16 395 -7 41 -17 102 -22 135 -5
33 -14 89 -19 125 -14 88 -39 249 -52 335 -6 39 -15 97 -20 130 -6 33 -14 87
-19 120 -10 68 -56 371 -70 455 -12 79 -30 196 -39 258 -13 86 -25 82 -45 -15
-10 -49 -22 -104 -26 -123 -4 -19 -25 -116 -45 -215 -21 -99 -41 -198 -46
-220 -5 -22 -13 -62 -19 -90 -5 -27 -18 -90 -29 -140 -57 -263 -122 -580 -128
-617 -3 -21 -9 -38 -12 -38 -8 0 -31 97 -31 133 0 15 -5 46 -10 69 -6 24 -24
135 -41 248 -17 113 -35 234 -41 270 -5 36 -13 87 -16 113 -8 58 -24 63 -34
11 -4 -21 -12 -60 -18 -86 -5 -27 -14 -69 -19 -95 -6 -27 -22 -102 -36 -168
-28 -128 -41 -197 -51 -257 -4 -21 -13 -43 -20 -49 -15 -13 -12 -24 -48 181
-14 80 -30 168 -36 195 -6 28 -26 138 -45 245 -19 107 -44 242 -55 300 -11 58
-25 130 -30 160 -6 30 -21 116 -35 190 -26 138 -31 215 -16 238 7 11 67 11
342 2 672 -23 851 -29 1184 -39 187 -6 364 -14 393 -17 47 -5 52 -8 52 -30 0
-46 32 -168 65 -244 132 -313 434 -513 775 -513 58 0 132 5 165 12 270 55 495
234 610 485 54 119 70 194 70 346 0 99 -5 154 -19 205 -22 84 -72 196 -116
260 -25 37 -29 49 -20 60 7 8 16 15 20 15 9 0 106 45 498 231 68 33 125 59
127 59 2 0 74 34 160 75 87 41 158 75 160 75 1 0 63 29 136 64 74 35 154 73
179 84 25 11 74 34 110 51 36 17 72 31 80 31 8 0 31 -19 51 -42z m-2101 -404
c162 -17 334 -105 455 -235 96 -102 156 -211 190 -344 25 -94 25 -274 0 -370
-98 -383 -460 -630 -851 -579 -120 16 -212 48 -313 111 -368 229 -473 725
-230 1083 96 141 234 247 389 301 70 23 229 49 270 44 14 -2 54 -7 90 -11z
m2761 -1389 c10 -277 10 -526 0 -565 -5 -19 -15 -69 -22 -110 -12 -68 -14 -72
-21 -42 -7 24 -25 43 -78 80 -70 47 -80 66 -48 86 14 8 27 4 63 -22 25 -18 48
-32 51 -32 3 0 3 178 -1 396 l-8 396 29 -4 29 -3 6 -180z m-5679 -145 c-1
-168 -5 -344 -8 -392 -4 -64 -2 -88 6 -88 7 0 32 14 56 32 44 32 45 32 64 12
24 -23 19 -31 -45 -74 -27 -18 -60 -42 -72 -53 -13 -11 -24 -19 -26 -16 -2 2
-9 31 -16 64 -19 91 -24 283 -16 568 l7 258 27 -3 26 -3 -3 -305z m4769 -90
c12 -220 9 -421 -7 -525 -8 -55 -17 -114 -20 -132 -6 -39 -16 -37 -91 19 -56
41 -58 44 -43 68 10 16 19 13 87 -30 12 -8 25 -11 29 -8 3 4 2 166 -4 360 -5
194 -7 357 -5 361 3 5 15 7 26 5 21 -3 22 -10 28 -118z m-3870 -273 c-2 -202
-1 -367 3 -367 3 0 26 15 52 32 44 32 46 32 59 14 8 -10 12 -23 9 -28 -9 -14
-112 -88 -123 -88 -11 0 -12 3 -33 115 -14 75 -18 644 -5 678 4 11 14 17 24
15 17 -3 18 -27 14 -371z m4337 -89 c8 -8 12 -58 12 -157 0 -81 3 -203 7 -273
l6 -127 28 20 c15 10 30 15 33 10 10 -16 -11 -57 -38 -74 -26 -17 -26 -18 -26
-160 0 -79 -7 -177 -15 -222 -8 -44 -14 -81 -15 -83 0 -2 -7 4 -16 12 -8 9
-47 34 -85 57 -38 23 -69 48 -69 55 0 28 30 25 89 -10 33 -19 63 -31 66 -26 3
5 3 88 -1 184 l-7 176 -48 32 c-49 33 -59 60 -26 66 10 2 27 -4 38 -14 10 -9
22 -14 27 -10 4 4 5 126 3 271 -4 286 0 310 37 273z m-4816 -291 c-3 -181 0
-277 6 -277 6 0 24 8 41 18 27 14 33 15 40 3 13 -21 5 -34 -39 -61 -22 -13
-43 -31 -46 -40 -10 -24 -18 -360 -8 -360 5 0 36 16 68 36 58 35 86 38 86 10
0 -13 -168 -123 -174 -115 -13 20 -26 154 -26 275 l0 150 -35 33 c-22 20 -35
42 -35 57 0 25 0 25 30 8 16 -10 31 -16 33 -13 3 2 7 123 11 269 4 168 11 269
18 277 30 36 33 5 30 -270z m4487 85 c5 -10 7 -22 3 -28 -14 -20 -65 -54 -73
-48 -19 11 -8 53 19 73 34 25 39 26 51 3z m-4130 -36 c16 -17 21 -31 16 -45
-8 -27 -14 -27 -55 7 -23 20 -31 34 -27 45 9 24 40 21 66 -7z m4042 -302 c4
-54 7 -161 8 -236 1 -147 4 -154 49 -122 12 8 27 12 32 9 20 -12 9 -33 -30
-60 l-40 -28 0 -164 c0 -129 3 -163 13 -157 6 4 31 21 55 37 42 28 78 30 70 4
-2 -6 -34 -32 -71 -57 l-66 -45 -1 -105 c0 -100 -7 -130 -32 -130 -4 0 -8 53
-8 118 l0 117 -70 43 c-101 63 -93 102 9 45 27 -16 52 -25 56 -21 4 4 4 75 0
158 l-8 151 -38 27 c-42 29 -52 62 -20 62 11 0 23 -4 26 -10 3 -5 12 -10 19
-10 11 0 12 43 8 224 -5 227 -2 261 21 254 8 -3 14 -38 18 -104z m-3981 -164
c0 -132 3 -240 8 -240 4 0 16 7 26 15 27 20 46 19 46 -2 0 -10 -18 -30 -39
-45 -38 -27 -38 -28 -44 -110 -4 -46 -7 -118 -7 -160 0 -87 0 -87 72 -40 36
23 68 24 68 2 0 -6 -21 -23 -46 -38 -93 -55 -94 -56 -95 -158 -1 -100 -9 -128
-31 -106 -9 9 -13 43 -14 100 0 48 -1 92 -2 97 -1 6 -31 30 -67 53 -61 41 -77
63 -55 77 5 3 33 -10 61 -29 29 -19 56 -33 61 -30 4 3 8 74 8 159 l0 154 -40
28 c-41 29 -53 63 -23 63 9 0 25 -7 35 -17 10 -9 21 -13 26 -9 4 4 8 113 10
242 3 224 4 234 23 234 18 0 19 -9 19 -240z m1290 -27 c-1 -241 2 -261 35
-233 18 15 45 6 45 -14 0 -8 -16 -24 -35 -36 -19 -12 -40 -30 -45 -40 -10 -18
-15 -310 -5 -310 2 0 27 14 56 30 40 24 54 28 65 19 23 -19 17 -26 -55 -69
l-68 -41 -7 -76 c-9 -110 -7 -233 3 -233 5 0 38 16 74 35 76 41 87 43 87 13 0
-18 -16 -31 -76 -63 -41 -21 -79 -44 -83 -50 -5 -5 -12 -81 -16 -169 l-7 -159
106 57 c59 31 111 54 116 51 25 -15 7 -42 -47 -70 -32 -16 -84 -45 -115 -63
l-58 -33 0 -54 c0 -57 -11 -75 -35 -55 -10 8 -15 31 -15 64 l-1 51 -110 64
c-61 35 -113 71 -116 79 -11 28 20 32 62 8 95 -54 118 -67 139 -82 32 -20 34
-14 35 158 l2 146 -83 53 c-45 30 -86 57 -91 60 -9 7 2 39 14 39 4 0 37 -18
71 -40 35 -22 69 -40 76 -40 9 0 12 27 12 104 0 57 3 124 6 149 l6 45 -71 48
c-45 30 -71 54 -71 65 0 27 28 23 80 -11 25 -16 48 -30 53 -30 4 0 7 71 7 159
l0 158 -40 28 c-61 42 -48 90 14 50 19 -12 25 -13 28 -3 3 7 6 111 7 231 1
120 5 225 8 233 3 8 14 14 24 14 19 0 20 -9 19 -237z m3351 210 c29 -17 40
-55 19 -68 -13 -8 -80 33 -80 49 0 11 19 36 28 36 2 0 17 -8 33 -17z m-5283
-25 c18 -18 15 -24 -18 -48 -25 -18 -34 -19 -45 -10 -20 17 -19 40 3 56 21 17
44 18 60 2z m3096 -220 c6 -95 4 -140 -9 -197 -8 -41 -18 -77 -20 -80 -3 -2
-5 86 -5 197 0 165 3 202 14 202 10 0 15 -28 20 -122z m-924 -123 c0 -124 2
-225 5 -225 3 0 17 7 30 16 23 15 25 15 32 -1 6 -18 0 -25 -52 -59 -18 -12
-21 -28 -25 -149 -5 -124 -11 -159 -25 -145 -3 3 -7 65 -9 138 -3 103 -8 137
-20 152 -22 25 -20 48 4 48 19 0 20 7 20 218 0 120 3 222 7 225 3 4 12 7 20 7
10 0 13 -44 13 -225z m2628 157 c4 -28 -45 -63 -59 -41 -14 22 -11 37 13 53
28 20 42 16 46 -12z m-385 -12 c36 -22 47 -36 47 -55 0 -33 -11 -32 -76 8 -55
33 -63 44 -42 65 16 16 18 16 71 -18z m-3929 -9 c17 -19 13 -51 -8 -51 -23 1
-59 37 -53 54 8 22 40 20 61 -3z m405 -2 c7 -13 9 -24 4 -28 -104 -68 -115
-74 -124 -60 -17 26 -9 39 44 74 28 19 54 34 57 34 3 1 11 -9 19 -20z m2152
-329 c26 -19 31 -50 8 -50 -20 0 -67 43 -62 56 7 19 20 18 54 -6z m-248 -207
c4 -54 7 -119 7 -146 0 -46 1 -47 25 -41 14 3 25 3 25 -1 0 -4 -11 -16 -25
-27 -23 -18 -25 -25 -25 -112 0 -51 3 -96 6 -99 4 -4 19 2 34 13 33 24 40 25
40 6 0 -8 -8 -17 -18 -20 -10 -4 -28 -16 -41 -27 -20 -19 -22 -29 -20 -105 1
-47 6 -87 11 -90 5 -3 27 6 49 21 23 14 44 24 47 20 7 -7 -20 -31 -72 -68 -25
-17 -26 -23 -26 -107 0 -52 4 -92 11 -95 6 -4 33 7 60 24 28 17 55 31 60 31
23 0 4 -19 -56 -54 -72 -42 -76 -50 -73 -143 2 -36 -1 -63 -7 -63 -6 0 -11 35
-13 80 l-3 80 -47 26 c-82 47 -97 57 -85 61 6 2 34 -8 63 -22 28 -14 55 -23
60 -20 11 7 13 116 4 164 -5 26 -17 37 -55 57 -27 13 -49 29 -49 34 0 14 5 13
50 -10 22 -11 42 -20 45 -20 3 0 4 44 3 98 l-3 97 -37 20 c-21 11 -38 23 -38
28 0 11 38 9 45 -3 3 -5 13 -10 21 -10 11 0 14 18 14 90 0 84 -2 92 -25 112
-31 27 -32 39 -4 35 22 -2 22 0 20 141 -3 162 13 193 22 45z m-337 -74 c-6
-127 0 -170 19 -139 4 6 11 7 17 4 6 -4 0 -16 -16 -31 -24 -22 -26 -29 -26
-117 0 -89 1 -94 20 -89 11 3 23 9 26 14 7 11 34 12 34 1 0 -5 -18 -18 -39
-30 -21 -12 -42 -29 -45 -38 -8 -21 -8 -169 1 -177 3 -4 21 3 39 14 19 11 42
19 51 17 11 -2 -2 -15 -40 -38 l-57 -34 0 -98 c0 -54 3 -98 8 -98 4 0 16 7 26
15 23 17 36 19 36 5 0 -6 -15 -19 -32 -30 -31 -19 -33 -23 -38 -92 -6 -85 -24
-91 -27 -8 -1 30 -2 60 -2 67 -1 6 -30 30 -66 52 -36 23 -65 46 -65 51 0 15 4
13 66 -24 32 -19 61 -33 66 -30 4 3 8 47 8 99 l0 93 -50 32 c-77 49 -62 64 18
17 l32 -19 0 100 0 99 -42 28 c-24 16 -37 30 -30 33 7 2 24 -4 38 -13 14 -9
27 -15 29 -13 2 2 5 44 7 95 3 85 1 93 -21 117 -25 27 -23 48 3 27 8 -7 17 -8
19 -4 3 5 7 67 8 138 2 138 5 159 22 148 6 -4 8 -52 3 -144z m542 -45 c24 -17
30 -44 8 -44 -19 0 -67 40 -61 51 9 13 28 11 53 -7z m-718 -19 c0 -14 -100
-85 -119 -85 -26 0 -18 50 8 51 9 0 32 11 51 24 41 28 60 31 60 10z m2227
-190 c45 -27 53 -42 28 -51 -20 -8 -99 37 -103 59 -5 25 23 22 75 -8z m-3711
-7 c9 -15 -44 -58 -73 -58 -37 0 -35 18 4 44 41 29 58 32 69 14z m1420 -195
c-11 -11 -19 6 -11 24 8 17 8 17 12 0 3 -10 2 -21 -1 -24z"/>
<path d="M6141 4018 c-1 -104 3 -188 7 -188 5 0 17 9 27 20 10 12 25 18 32 16
18 -7 17 13 -12 134 -56 228 -53 227 -54 18z"/>
<path d="M6583 3563 l-53 -36 0 -161 c0 -160 6 -236 19 -236 20 0 43 30 47 60
15 116 36 251 45 287 11 50 12 123 2 122 -5 0 -32 -16 -60 -36z"/>
<path d="M4154 3533 c4 -21 11 -65 17 -98 5 -33 13 -89 19 -125 6 -36 14 -91
18 -122 5 -39 14 -63 28 -72 10 -8 22 -12 26 -8 4 4 10 93 14 198 l7 190 -50
37 c-68 50 -88 49 -79 0z"/>
<path d="M6547 3074 c-10 -10 -9 -154 2 -154 4 0 11 26 15 58 3 31 7 66 9 76
2 19 -14 32 -26 20z"/>
<path d="M4234 3021 c19 -127 19 -128 27 -101 4 14 7 46 8 72 1 38 -3 49 -20
59 -20 10 -21 9 -15 -30z"/>
<path d="M8717 7493 c-15 -25 32 -201 75 -287 50 -99 150 -217 240 -283 51
-37 62 -67 27 -78 -26 -9 -41 -48 -30 -78 5 -13 27 -35 50 -50 48 -32 66 -59
75 -109 5 -26 3 -39 -7 -45 -42 -25 -49 -102 -12 -138 32 -33 75 -32 114 1 50
42 42 99 -17 139 -30 21 -38 34 -47 77 -7 39 -7 62 2 88 16 46 16 113 1 128
-7 7 -22 12 -35 12 -32 0 -39 22 -46 134 -12 182 -76 305 -216 415 -78 61
-161 96 -174 74z m73 -109 c0 -13 -4 -24 -10 -24 -5 0 -10 14 -10 31 0 17 4
28 10 24 6 -3 10 -17 10 -31z m47 -106 c-2 -13 -4 -3 -4 22 0 25 2 35 4 23 2
-13 2 -33 0 -45z m148 -18 c3 -5 1 -10 -4 -10 -6 0 -11 5 -11 10 0 6 2 10 4
10 3 0 8 -4 11 -10z m-45 -89 c0 -14 3 -43 6 -63 4 -24 3 -38 -4 -38 -14 0
-30 51 -37 120 l-6 55 20 -24 c12 -13 21 -35 21 -50z m73 48 c4 -16 3 -18 -9
-8 -16 13 -19 29 -5 29 5 0 11 -9 14 -21z m17 -210 c0 -5 -4 -9 -10 -9 -5 0
-10 7 -10 16 0 8 5 12 10 9 6 -3 10 -10 10 -16z m100 -218 c0 -39 -15 -47 -46
-26 -25 16 -25 17 -8 36 27 30 54 25 54 -10z m40 14 c0 -8 -2 -15 -4 -15 -2 0
-6 7 -10 15 -3 8 -1 15 4 15 6 0 10 -7 10 -15z m58 -287 c29 -29 -7 -86 -47
-73 -26 8 -38 50 -21 70 15 18 51 20 68 3z"/>
<path d="M1940 7287 c-35 -12 -35 -13 -32 -65 3 -67 -8 -87 -64 -112 -43 -18
-46 -22 -40 -47 17 -67 17 -83 1 -129 -50 -145 -70 -267 -70 -434 0 -153 18
-292 41 -311 23 -19 29 17 16 93 -15 87 -15 353 -1 432 6 34 23 104 38 156
l26 95 48 22 c51 25 54 33 35 96 -11 37 -10 41 11 58 13 11 33 19 45 19 26 1
56 22 56 41 0 8 -7 32 -14 54 -16 45 -38 53 -96 32z"/>
<path d="M8645 7210 c-3 -5 18 -40 48 -77 114 -143 186 -277 240 -443 51 -158
53 -180 17 -225 -33 -41 -30 -62 15 -91 41 -26 41 -50 1 -94 -20 -22 -36 -46
-36 -53 0 -19 63 -77 84 -77 9 0 33 16 51 36 37 39 36 52 -4 88 -30 27 -28 80
4 118 33 39 32 49 -9 86 -28 25 -36 43 -51 109 -42 197 -144 409 -264 553 -65
78 -83 91 -96 70z"/>
<path d="M1645 7168 c-46 -27 -60 -87 -29 -133 15 -23 15 -29 -1 -80 -12 -37
-27 -62 -46 -76 -28 -20 -69 -77 -69 -97 0 -6 11 -24 24 -40 27 -31 26 -58 -4
-102 -49 -71 -89 -201 -89 -290 -1 -69 24 -173 59 -245 31 -65 74 -125 91
-125 15 0 46 73 68 162 36 146 25 293 -33 459 -33 94 -33 109 -2 109 32 0 76
37 76 64 0 12 -10 42 -22 67 -35 70 -22 159 23 159 35 0 79 53 79 95 0 64 -69
105 -125 73z m69 -44 c19 -18 20 -28 6 -55 -19 -35 -80 -18 -80 22 0 21 26 49
45 49 7 0 21 -7 29 -16z m-80 -310 c14 -37 7 -54 -24 -54 -35 0 -40 22 -13 52
20 22 29 23 37 2z m-58 -281 c-11 -11 -19 6 -11 24 8 17 8 17 12 0 3 -10 2
-21 -1 -24z m23 -144 c-11 -35 -28 -71 -36 -79 -14 -13 -15 -11 -10 25 6 50
47 139 58 128 5 -5 0 -37 -12 -74z m-109 -44 c0 -19 -4 -35 -10 -35 -5 0 -10
16 -10 35 0 19 5 35 10 35 6 0 10 -16 10 -35z m117 -87 c-3 -8 -6 -5 -6 6 -1
11 2 17 5 13 3 -3 4 -12 1 -19z m-7 -33 c0 -8 -4 -15 -10 -15 -5 0 -10 -7 -10
-15 0 -8 -5 -15 -11 -15 -6 0 -8 6 -5 13 3 6 9 20 12 30 8 21 24 23 24 2z m0
-119 c0 -17 -14 -29 -23 -20 -8 8 3 34 14 34 5 0 9 -6 9 -14z"/>
<path d="M277 5584 c-4 -4 -7 -97 -7 -206 l0 -199 38 3 37 3 3 88 3 88 77 -3
77 -3 5 -85 5 -85 43 -3 42 -3 0 206 0 206 -42 -3 -43 -3 -3 -67 -3 -67 -54
-6 c-30 -4 -66 -4 -79 -1 -23 6 -25 11 -28 74 -3 67 -3 67 -33 70 -17 2 -34 0
-38 -4z"/>
<path d="M1327 5583 c-4 -3 -7 -51 -7 -105 0 -63 -4 -98 -11 -98 -6 0 -58 44
-115 98 -58 53 -109 99 -115 100 -5 2 -9 -75 -9 -197 l0 -201 40 0 40 0 0 105
c0 66 4 105 10 105 6 0 50 -37 98 -82 48 -46 99 -94 115 -107 l27 -24 0 206 0
207 -33 0 c-19 0 -37 -3 -40 -7z"/>
<path d="M1504 5577 c-2 -7 -3 -98 -2 -202 l3 -190 75 -3 c99 -4 149 11 198
60 108 107 64 290 -81 333 -64 19 -186 20 -193 2z m169 -86 c47 -18 67 -50 67
-108 0 -65 -24 -95 -90 -113 -64 -17 -70 -7 -70 115 0 56 3 105 7 108 9 10 58
8 86 -2z"/>
<path d="M820 5571 c0 -5 -40 -93 -90 -195 -49 -103 -90 -189 -90 -191 0 -13
89 -4 100 10 9 11 33 15 91 15 56 0 82 -4 93 -15 8 -8 32 -15 55 -15 43 0 51
12 31 48 -5 9 -35 71 -65 137 -31 66 -66 141 -78 167 -19 42 -47 65 -47 39z
m40 -211 c10 -25 16 -48 13 -52 -2 -5 -22 -8 -44 -8 -28 0 -39 4 -39 15 0 24
34 95 44 92 5 -2 17 -23 26 -47z"/>
<path d="M9047 5573 c-5 -8 -64 -286 -77 -361 l-7 -43 40 3 c45 3 45 3 67 111
6 31 14 57 18 57 4 -1 30 -37 57 -80 28 -44 55 -80 60 -80 6 0 31 34 55 75 25
41 49 74 54 72 6 -2 17 -38 25 -80 l14 -77 98 0 c77 0 98 3 103 15 4 12 24 15
94 15 67 0 93 -4 102 -15 8 -10 30 -15 61 -15 27 0 49 1 49 3 0 13 -197 392
-205 393 -5 2 -53 -84 -105 -191 -52 -106 -98 -190 -103 -186 -8 8 -64 265
-74 339 -3 23 -9 42 -14 42 -11 0 -39 -43 -88 -135 -66 -125 -58 -126 -144 20
-41 69 -77 123 -80 118z m648 -274 c-8 -11 -82 -12 -89 -1 -3 5 7 33 21 63
l26 54 23 -53 c14 -30 22 -58 19 -63z"/>
<path d="M9900 5375 l0 -205 93 0 c80 0 100 4 146 26 71 36 102 83 108 166 4
52 0 71 -19 108 -41 79 -109 110 -245 110 l-83 0 0 -205z m216 83 c30 -28 35
-40 36 -79 1 -75 -43 -119 -121 -119 l-41 0 0 115 0 115 45 0 c37 0 52 -6 81
-32z"/>
<path d="M10320 5375 l0 -206 128 3 127 3 3 34 c4 44 -7 51 -96 51 l-73 0 3
43 3 42 68 3 67 3 0 44 0 44 -67 3 c-60 3 -68 5 -68 23 0 18 8 21 75 25 l75 5
3 43 3 42 -125 0 -126 0 0 -205z"/>
<path d="M2258 3648 c-95 -25 -158 -131 -137 -230 22 -103 137 -176 233 -148
91 27 146 100 146 195 0 94 -51 166 -130 184 -53 12 -63 12 -112 -1z m128 -92
c31 -31 34 -40 34 -90 0 -47 -4 -61 -29 -88 -26 -30 -35 -33 -84 -33 -45 0
-60 5 -81 24 -59 55 -55 134 10 191 50 44 104 42 150 -4z"/>
<path d="M8365 3642 c-72 -25 -109 -82 -109 -171 -1 -105 45 -170 141 -201 47
-14 100 -5 152 28 139 85 112 292 -45 346 -59 20 -76 20 -139 -2z m146 -73
c81 -57 77 -174 -7 -214 -88 -41 -174 13 -174 110 0 101 103 160 181 104z"/>
<path d="M8125 3211 c-101 -46 -141 -158 -95 -260 24 -53 25 -50 -82 -166
-441 -477 -975 -804 -1568 -962 -596 -157 -1248 -154 -1885 12 -72 18 -222 64
-250 75 -11 5 -31 12 -45 15 -54 15 -308 119 -423 174 -229 109 -484 263 -692
420 -144 108 -315 254 -315 269 0 7 7 29 15 49 37 88 -4 206 -87 249 -43 22
-139 18 -189 -8 -91 -48 -126 -166 -79 -264 42 -85 151 -125 246 -89 l46 17
46 -44 c251 -238 561 -455 897 -627 116 -59 177 -89 320 -151 148 -64 432
-151 690 -210 90 -21 264 -47 461 -70 117 -13 564 -13 674 0 258 31 370 50
515 86 145 36 275 74 320 93 11 5 74 30 140 57 480 190 940 519 1273 911 l53
61 73 -5 c64 -5 79 -3 115 17 22 13 53 42 68 64 48 72 35 217 -25 267 -49 41
-150 51 -217 20z m132 -61 c78 -47 83 -164 11 -214 -24 -17 -88 -22 -88 -8 0
5 14 28 30 50 38 53 39 79 3 88 -27 7 -28 7 -85 -66 -19 -24 -20 -24 -34 -6
-32 45 0 120 66 154 54 27 57 27 97 2z m-5595 -135 c26 -18 40 -37 48 -65 10
-38 6 -85 -9 -95 -4 -2 -27 13 -52 34 -42 37 -69 43 -69 17 0 -7 16 -31 35
-53 19 -23 35 -46 35 -52 0 -20 -89 -13 -120 9 -80 57 -51 190 46 220 43 13
46 12 86 -15z"/>
<path d="M2172 2662 c-21 -21 -27 -50 -36 -174 -8 -100 1 -107 139 -119 117
-9 140 -7 149 16 3 8 11 65 17 125 15 137 11 144 -89 154 -37 4 -88 9 -113 12
-39 5 -50 3 -67 -14z m232 -29 c17 -5 18 -13 12 -109 -4 -57 -9 -111 -12 -119
-8 -19 -132 -21 -201 -3 l-46 11 6 98 c9 144 8 143 125 134 54 -3 106 -9 116
-12z"/>
<path d="M8395 2559 c-132 -13 -135 -16 -135 -91 0 -83 18 -190 34 -206 11
-11 36 -12 130 -4 64 6 123 16 131 22 18 15 19 91 5 195 -10 70 -27 96 -59 94
-9 -1 -56 -6 -106 -10z m136 -59 c4 -19 11 -72 14 -117 l7 -82 -28 -7 c-16 -4
-72 -8 -124 -8 l-94 -1 -12 75 c-16 96 -17 147 -3 156 18 11 110 22 174 20
l59 -1 7 -35z"/>
<path d="M2496 2314 c-13 -12 -16 -39 -16 -130 0 -153 1 -154 150 -154 149 0
150 1 150 153 0 149 2 147 -153 147 -92 0 -119 -3 -131 -16z m252 -16 c17 -17
16 -212 -1 -226 -14 -12 -219 -18 -236 -8 -16 10 -15 218 1 234 8 8 49 12 118
12 69 0 110 -4 118 -12z"/>
<path d="M7948 2209 c-16 -9 -18 -26 -18 -133 0 -159 -3 -156 148 -156 150 0
152 1 152 148 0 153 1 152 -148 152 -64 0 -125 -5 -134 -11z m252 -28 c5 -11
10 -61 10 -112 0 -125 -4 -129 -127 -129 -135 0 -133 -2 -133 128 0 71 4 112
12 120 8 8 49 12 120 12 96 0 108 -2 118 -19z"/>
<path d="M7498 1955 c-104 -37 -195 -83 -201 -102 -7 -21 -66 -128 -127 -231
-33 -57 -52 -78 -79 -89 -20 -9 -44 -20 -55 -25 -37 -19 -33 8 10 82 66 110
117 217 109 229 -15 25 -35 7 -70 -61 -21 -40 -62 -112 -91 -159 -28 -48 -55
-96 -58 -107 -6 -19 -75 -53 -138 -68 -34 -7 -34 -5 -6 43 39 67 88 168 88
181 0 17 29 15 36 -3 8 -19 38 -19 54 0 20 24 3 55 -30 55 -27 0 -28 2 -23 35
5 30 3 35 -14 35 -15 0 -26 -14 -43 -52 -64 -151 -155 -308 -193 -332 -12 -8
-40 -19 -62 -25 -22 -5 -58 -15 -80 -21 -22 -6 -53 -15 -70 -19 -114 -32 -300
-70 -306 -64 -4 5 -9 17 -11 27 -1 10 -11 24 -20 30 -26 16 -52 -4 -58 -44 -4
-26 -7 -30 -16 -19 -6 8 -14 22 -17 32 -8 21 -53 23 -61 1 -3 -9 -6 -27 -6
-40 0 -42 -28 -28 -37 18 -15 76 -73 57 -73 -23 l0 -37 -57 -7 c-103 -11 -278
-22 -290 -18 -7 3 -15 21 -19 40 -8 43 -77 118 -117 128 -46 12 -129 -4 -172
-33 -27 -18 -48 -44 -65 -81 l-25 -53 -114 6 c-134 8 -151 15 -151 59 -1 70
-73 167 -136 183 -38 10 -134 -14 -171 -42 -18 -14 -44 -45 -59 -69 -14 -25
-28 -45 -30 -45 -22 0 -398 116 -419 129 -5 3 -48 22 -94 41 -47 19 -86 40
-88 46 -4 12 80 29 222 44 107 12 133 26 114 61 -8 15 -21 19 -67 19 -78 0
-208 -25 -298 -56 l-75 -25 -65 36 c-53 30 -63 39 -53 51 6 8 20 14 30 14 11
0 27 4 37 9 9 5 36 17 60 27 70 29 81 72 33 127 -54 61 -124 90 -301 128 -109
23 -401 55 -423 46 -37 -14 -5 -97 91 -240 95 -142 336 -363 419 -383 52 -14
66 36 37 136 -20 70 -28 110 -21 110 2 0 31 -16 63 -35 32 -19 61 -35 66 -35
4 0 8 -7 8 -16 0 -19 130 -211 213 -312 50 -62 63 -73 86 -70 43 5 37 36 -22
108 -83 101 -157 200 -157 210 0 9 55 -6 75 -20 33 -23 303 -115 441 -150 l90
-23 12 -50 c17 -70 49 -113 106 -142 60 -30 99 -31 159 -6 44 19 107 83 107
109 0 11 22 12 118 6 143 -8 158 -13 167 -56 11 -49 54 -107 96 -129 46 -23
122 -25 172 -4 46 19 92 76 106 130 l11 43 87 6 c49 4 124 10 168 15 44 5 83
6 88 4 4 -2 7 -13 7 -24 0 -33 19 -59 43 -59 33 0 47 19 47 63 0 44 23 48 28
5 2 -14 12 -34 23 -44 27 -24 48 -12 76 44 1 2 11 -6 22 -17 12 -12 25 -21 30
-21 21 0 41 34 41 69 0 42 -22 33 210 86 63 15 126 31 140 35 53 19 166 47
190 48 14 1 54 -13 90 -30 304 -146 341 -161 355 -137 12 19 -24 42 -147 94
-203 85 -229 98 -216 106 7 4 46 19 87 33 65 23 79 24 108 14 42 -15 42 -31 1
-43 -37 -11 -49 -44 -24 -64 22 -18 55 -4 62 27 10 47 13 52 31 52 25 -1 86
-32 90 -47 2 -6 -5 -14 -16 -18 -25 -8 -43 -38 -35 -59 7 -19 36 -29 59 -20
14 6 16 15 10 50 -8 53 -2 54 89 22 113 -39 129 2 18 48 -37 15 -71 31 -77 36
-5 4 -17 8 -27 8 -9 0 -32 6 -50 14 -18 8 -46 18 -63 22 l-30 7 50 23 c28 12
61 23 75 23 27 1 101 -25 182 -64 62 -30 124 -32 170 -7 18 10 83 45 143 77
61 32 115 62 122 67 24 19 -1 38 -108 79 -60 23 -112 46 -115 51 -3 5 11 58
31 118 36 106 39 140 13 140 -7 -1 -43 -11 -80 -25z m-4228 -36 c41 -5 100
-13 130 -18 30 -5 74 -13 98 -16 25 -5 42 -13 42 -21 0 -8 -7 -14 -15 -14 -22
0 -135 -55 -166 -81 l-27 -21 -116 87 c-64 48 -113 92 -110 97 4 6 23 8 48 4
22 -4 75 -11 116 -17z m4251 -42 c-9 -9 -14 -8 -21 3 -7 11 -5 19 8 28 14 11
18 10 20 -4 2 -9 -1 -21 -7 -27z m-4359 -24 c92 -73 169 -127 285 -200 57 -36
92 -65 93 -75 0 -10 9 -33 20 -53 19 -33 27 -85 14 -85 -44 0 -347 268 -430
381 -50 68 -43 80 18 32z m4221 -9 c4 -5 -10 -61 -19 -72 -4 -6 -44 23 -44 32
0 26 47 56 63 40z m-3664 -40 c21 -13 44 -36 51 -49 17 -32 4 -48 -58 -71 -26
-9 -75 -28 -109 -41 -71 -27 -78 -26 -175 44 -49 36 -49 36 -30 55 25 26 230
98 260 92 13 -3 41 -16 61 -30z m3718 -6 c-3 -8 -6 -5 -6 6 -1 11 2 17 5 13 3
-3 4 -12 1 -19z m-3967 -317 c36 -28 77 -53 92 -56 14 -4 29 -13 32 -21 6 -16
-2 -44 -14 -44 -17 0 -153 99 -222 161 -67 59 -198 213 -198 232 0 5 55 -43
123 -107 67 -63 151 -138 187 -165z m3963 259 c3 -12 14 -20 27 -20 18 0 20
-3 11 -14 -14 -16 -69 -41 -77 -34 -6 7 19 88 27 88 4 0 9 -9 12 -20z m-88
-50 c-8 -53 -12 -60 -31 -60 -10 0 -13 7 -8 24 4 18 1 27 -14 35 -14 7 -18 17
-15 31 4 16 13 19 40 17 l34 -2 -6 -45z m149 -34 c-5 -20 1 -29 32 -50 48 -32
29 -34 -39 -2 -29 12 -59 25 -67 28 -11 3 -5 11 20 26 47 29 62 28 54 -2z
m-220 -21 c22 -17 22 -17 -22 -35 -41 -16 -50 -8 -28 25 19 29 24 30 50 10z
m377 -15 c10 -6 19 -14 19 -19 0 -14 -65 -43 -85 -38 -19 5 -18 5 3 12 19 6
22 13 18 31 -7 27 11 32 45 14z m-208 -51 c42 -22 77 -45 77 -50 0 -8 -40 -29
-56 -29 -2 0 -4 9 -4 20 0 16 -7 20 -35 20 -24 0 -37 6 -45 21 -7 13 -19 19
-33 17 -18 -2 -22 -9 -20 -36 1 -22 -3 -32 -10 -29 -78 31 -97 40 -97 47 0 11
99 58 125 59 11 1 55 -17 98 -40z m-45 -76 c2 -8 -6 -13 -22 -13 -26 0 -40 12
-29 24 11 11 46 2 51 -11z m-2694 -155 c49 -33 75 -138 43 -178 -41 -53 -123
-67 -171 -29 -30 24 -56 69 -56 99 0 33 27 23 47 -17 10 -21 28 -42 40 -48 12
-5 24 -19 26 -30 3 -20 4 -20 12 0 5 11 19 34 31 50 30 40 33 69 10 94 -25 27
-75 27 -110 0 -20 -16 -30 -19 -38 -11 -8 8 0 22 29 52 48 47 85 52 137 18z
m643 -68 c48 -29 67 -64 65 -123 -1 -65 -39 -108 -101 -114 -133 -13 -181 167
-63 235 46 27 59 27 99 2z"/>
<path d="M5244 1207 c-22 -15 -29 -27 -24 -37 4 -8 13 -27 20 -42 7 -15 26
-32 43 -39 28 -12 32 -11 58 19 34 38 36 60 8 96 -25 32 -62 33 -105 3z"/>
<path d="M6716 1658 c-8 -18 -24 -58 -36 -88 -12 -30 -29 -69 -37 -87 -17 -37
-14 -68 7 -68 12 0 37 41 61 100 24 62 50 156 44 165 -11 18 -25 10 -39 -22z"/>
<path d="M6867 1574 c-25 -25 8 -70 43 -59 32 10 24 59 -10 63 -14 2 -29 0
-33 -4z"/>
<path d="M6706 1293 c-16 -17 0 -36 68 -82 138 -93 176 -109 176 -71 0 17 -65
70 -86 70 -3 0 -18 8 -32 18 -55 38 -120 71 -126 65z"/>
</g>
</svg>
